<svg viewBox="0 0 24 24" fill="none" xmlns="http://www.w3.org/2000/svg">
<g clip-path="url(#clip0_25_4423)">
<path d="M3.34099 7.99999C3.0865 8.00052 2.84138 7.90399 2.65558 7.73008C2.46978 7.55617 2.35728 7.31796 2.34099 7.06399L2.08299 3.06399C2.07444 2.93285 2.09183 2.80131 2.13415 2.67689C2.17648 2.55248 2.24291 2.43762 2.32965 2.3389C2.4164 2.24017 2.52175 2.15951 2.63969 2.10153C2.75763 2.04355 2.88584 2.00939 3.01699 2.00099C3.27999 1.98927 3.53726 2.08009 3.73462 2.25432C3.93198 2.42854 4.054 2.67257 4.07499 2.93499L4.27899 5.99999H6.99999C7.26521 5.99999 7.51956 6.10535 7.7071 6.29289C7.89463 6.48042 7.99999 6.73478 7.99999 6.99999C7.99999 7.26521 7.89463 7.51956 7.7071 7.7071C7.51956 7.89464 7.26521 7.99999 6.99999 7.99999H3.34099Z" fill="black"/>
<path d="M3.34101 7.75099C3.15081 7.75091 2.96774 7.67857 2.82887 7.5486C2.69 7.41864 2.60569 7.24077 2.59301 7.05099L2.33501 3.05099C2.32844 2.9525 2.34134 2.85368 2.37296 2.76018C2.40459 2.66667 2.45432 2.58031 2.51932 2.50602C2.58432 2.43173 2.66332 2.37098 2.7518 2.32722C2.84028 2.28346 2.93652 2.25756 3.03501 2.25099C3.1335 2.24443 3.23232 2.25732 3.32583 2.28895C3.41933 2.32057 3.5057 2.37031 3.57998 2.43531C3.65427 2.50031 3.71503 2.57931 3.75878 2.66779C3.80254 2.75627 3.82844 2.8525 3.83501 2.95099L4.04701 6.25099H7.00001C7.19892 6.25099 7.38969 6.33001 7.53034 6.47066C7.67099 6.61132 7.75001 6.80208 7.75001 7.00099C7.75001 7.19991 7.67099 7.39067 7.53034 7.53132C7.38969 7.67198 7.19892 7.75099 7.00001 7.75099H3.34101Z" fill="black"/>
<path d="M12 23C9.08367 22.9966 6.28778 21.8365 4.22563 19.7744C2.16347 17.7122 1.00344 14.9163 1 12C1 11.7348 1.10536 11.4804 1.29289 11.2929C1.48043 11.1054 1.73478 11 2 11C2.26522 11 2.51957 11.1054 2.70711 11.2929C2.89464 11.4804 3 11.7348 3 12C3.00243 14.1835 3.79859 16.2917 5.24016 17.9318C6.68173 19.5718 8.67037 20.6318 10.8356 20.9144C13.0007 21.1969 15.1948 20.6826 17.0089 19.4673C18.823 18.2521 20.1335 16.4188 20.6961 14.309C21.2587 12.1991 21.0351 9.95675 20.067 7.99957C19.0989 6.04239 17.4522 4.50392 15.4338 3.67082C13.4155 2.83771 11.1631 2.7668 9.09629 3.47128C7.02952 4.17577 5.28934 5.6076 4.2 7.5C4.13482 7.61465 4.0476 7.71526 3.94337 7.79607C3.83915 7.87687 3.71997 7.93626 3.59269 7.97081C3.46542 8.00536 3.33257 8.0144 3.20179 7.9974C3.07101 7.9804 2.94488 7.9377 2.83067 7.87176C2.71646 7.80582 2.61642 7.71794 2.53631 7.61318C2.45621 7.50842 2.39761 7.38884 2.3639 7.26135C2.33019 7.13385 2.32204 7.00094 2.3399 6.87027C2.35777 6.73961 2.4013 6.61377 2.468 6.5C3.43333 4.828 4.82172 3.43952 6.49366 2.47408C8.1656 1.50864 10.0622 1.00025 11.9928 1C13.9235 0.999749 15.8202 1.50764 17.4924 2.47265C19.1646 3.43765 20.5534 4.82577 21.5191 6.49752C22.4849 8.16927 22.9937 10.0658 22.9943 11.9964C22.9949 13.9271 22.4874 15.8239 21.5227 17.4963C20.558 19.1687 19.1702 20.5577 17.4986 21.5238C15.8271 22.4899 13.9307 22.999 12 23Z" fill="currentColor"/>
<path d="M12 22.75C9.1499 22.7468 6.41744 21.6132 4.40211 19.5979C2.38678 17.5826 1.25318 14.8501 1.25 12C1.25 11.8011 1.32902 11.6103 1.46967 11.4697C1.61032 11.329 1.80109 11.25 2 11.25C2.19891 11.25 2.38968 11.329 2.53033 11.4697C2.67098 11.6103 2.75 11.8011 2.75 12C2.75128 14.2428 3.56783 16.4087 5.04754 18.0942C6.52725 19.7796 8.5692 20.8697 10.793 21.1613C13.0168 21.4529 15.2707 20.9261 17.135 19.6792C18.9992 18.4322 20.3466 16.5501 20.9261 14.3834C21.5056 12.2168 21.2777 9.91333 20.2848 7.90222C19.292 5.89112 17.6019 4.30952 15.5295 3.45206C13.457 2.59459 11.1436 2.51976 9.02003 3.24148C6.8965 3.9632 5.10774 5.43227 3.987 7.375C3.88754 7.54739 3.72368 7.67321 3.53145 7.72479C3.33923 7.77636 3.13439 7.74946 2.962 7.65C2.78961 7.55054 2.66379 7.38668 2.61222 7.19446C2.56064 7.00223 2.58754 6.79739 2.687 6.625C3.63034 4.99048 4.98731 3.63307 6.62153 2.68921C8.25575 1.74535 10.1096 1.24829 11.9968 1.248C13.884 1.24771 15.7381 1.74419 17.3726 2.68754C19.0071 3.63089 20.3645 4.98788 21.3083 6.6221C22.2522 8.25633 22.7492 10.1102 22.7495 11.9974C22.7498 13.8846 22.2533 15.7387 21.3099 17.3732C20.3666 19.0077 19.0096 20.365 17.3753 21.3089C15.7411 22.2527 13.8872 22.7497 12 22.75Z" fill="black"/>
<path d="M16 16C15.7835 16.0005 15.5729 15.9303 15.4 15.8L11.4 12.8C11.2758 12.7069 11.175 12.5861 11.1056 12.4472C11.0361 12.3084 11 12.1552 11 12V7C11 6.73478 11.1054 6.48043 11.2929 6.29289C11.4804 6.10536 11.7348 6 12 6C12.2652 6 12.5196 6.10536 12.7071 6.29289C12.8946 6.48043 13 6.73478 13 7V11.5L16.6 14.2C16.7679 14.3259 16.8919 14.5015 16.9545 14.7018C17.0171 14.9022 17.0151 15.1171 16.9487 15.3162C16.8823 15.5153 16.755 15.6885 16.5847 15.8112C16.4144 15.934 16.2099 16 16 16Z" fill="black"/>
<path d="M16 15.75C15.838 15.7499 15.6805 15.6973 15.551 15.6L11.551 12.6C11.4579 12.5301 11.3823 12.4396 11.3302 12.3354C11.2781 12.2313 11.251 12.1164 11.251 12V7C11.251 6.80109 11.33 6.61032 11.4707 6.46967C11.6113 6.32902 11.8021 6.25 12.001 6.25C12.1999 6.25 12.3907 6.32902 12.5313 6.46967C12.672 6.61032 12.751 6.80109 12.751 7V11.625L16.451 14.4C16.577 14.4945 16.6701 14.6263 16.717 14.7766C16.7639 14.927 16.7623 15.0883 16.7124 15.2376C16.6625 15.387 16.5668 15.5169 16.4389 15.6089C16.3111 15.7008 16.1575 15.7502 16 15.75Z" fill="black"/>
</g>
</svg>
