<svg viewBox="0 0 75 75" fill="none" xmlns="http://www.w3.org/2000/svg">
<path d="M38.675 50.7406C39.8439 51.0787 41.0536 51.2553 42.2703 51.2656C44.248 51.3378 46.1832 50.6805 47.7078 49.4187C49.0672 48.2234 49.5828 46.6531 49.0906 45.1156C48.7813 44.0937 47.3235 43.5875 46.4844 43.3766C43.4375 42.6125 42.7719 42.4391 41.2531 41.9984C40.3156 41.7312 39.7485 42.5937 39.3406 43.2266C39.125 43.5641 38.675 44.2672 38.4641 44.2109C35.6516 43.4797 32.2063 38.9984 31.1235 37.1047C31.6018 36.5725 32.1525 36.1102 32.7594 35.7312C33.2985 35.3516 33.7625 35.0234 33.5985 34.3672C33.4344 33.7109 32.0656 28.2734 32 27.9875C31.4375 25.9344 30.5 26.0328 28.7422 26.3937L28.3485 26.4734C26.5203 26.8437 25.0672 28.2594 24.3594 30.3641C23.3422 33.3781 23.7594 38.7125 28.2735 43.8312C31.2969 47.2578 34.9906 49.7187 38.675 50.7406ZM26.136 30.9687C26.6047 29.4969 27.5422 28.5594 28.7188 28.3203L29.1172 28.2406C29.4781 28.1656 29.8485 28.0906 30.0547 28.0672C30.0828 28.1516 30.125 28.2781 30.1766 28.475L31.6297 34.25C30.5 35.0469 28.625 36.3922 29.3703 37.8078C29.9797 38.9375 33.9406 44.9609 38 46.025C39.5281 46.4234 40.4375 45.0031 40.9297 44.2391C40.9906 44.1453 41.0703 44.0187 41.1453 43.9156C42.4297 44.2812 43.2406 44.4922 46.0391 45.1953C46.5064 45.2802 46.9486 45.4693 47.3328 45.7484C47.4188 46.1683 47.3838 46.604 47.232 47.0048C47.0801 47.4055 46.8176 47.755 46.475 48.0125C44.8578 49.4187 42.2047 49.7797 39.1906 48.95C35.8485 48.0125 32.4735 45.7625 29.6891 42.6031C25.6953 38.0703 25.2781 33.5 26.136 30.9687Z" fill="currentColor"/>
<path d="M37.0156 38.3234V39.9828C37.017 40.1551 37.0659 40.3238 37.1568 40.4701C37.2478 40.6165 37.3773 40.735 37.5312 40.8125C37.6581 40.875 37.7977 40.9071 37.9391 40.9063C38.1516 40.9074 38.3582 40.8363 38.525 40.7047L41.3375 38.4734H48.425C49.1539 38.4734 49.8531 38.1842 50.369 37.6692C50.8849 37.1542 51.1753 36.4555 51.1766 35.7266V27.4813C51.1753 26.7523 50.8849 26.0536 50.369 25.5386C49.8531 25.0236 49.1539 24.7344 48.425 24.7344H37.9531C37.591 24.7325 37.2321 24.8022 36.8969 24.9393C36.5618 25.0765 36.257 25.2785 36 25.5337C35.7431 25.7888 35.5391 26.0922 35.3996 26.4265C35.2602 26.7607 35.1881 27.1191 35.1875 27.4813V35.7406C35.1894 36.3069 35.366 36.8589 35.6931 37.3211C36.0203 37.7834 36.4822 38.1334 37.0156 38.3234ZM37.0625 27.4813C37.0625 27.3652 37.0856 27.2502 37.1306 27.1432C37.1756 27.0362 37.2415 26.9392 37.3245 26.858C37.4074 26.7768 37.5058 26.713 37.6137 26.6703C37.7217 26.6276 37.8371 26.6069 37.9531 26.6094H48.425C48.6567 26.6094 48.8789 26.7011 49.0432 26.8645C49.2074 27.0278 49.3003 27.2496 49.3016 27.4813V35.7406C49.2955 35.969 49.2004 36.186 49.0367 36.3454C48.873 36.5047 48.6535 36.5938 48.425 36.5938H41.0187C40.8057 36.5939 40.599 36.6667 40.4328 36.8L38.8906 38.0422V37.5313C38.8906 37.2826 38.7919 37.0442 38.616 36.8683C38.4402 36.6925 38.2018 36.5938 37.9531 36.5938C37.8386 36.5962 37.7248 36.5761 37.618 36.5346C37.5113 36.4931 37.4138 36.4309 37.3311 36.3517C37.2484 36.2725 37.1821 36.1777 37.136 36.0729C37.0899 35.968 37.0649 35.8551 37.0625 35.7406V27.4813Z" fill="currentColor"/>
<path d="M40.3438 29.5625H46.4375C46.6861 29.5625 46.9246 29.4637 47.1004 29.2879C47.2762 29.1121 47.375 28.8736 47.375 28.625C47.375 28.3764 47.2762 28.1379 47.1004 27.9621C46.9246 27.7863 46.6861 27.6875 46.4375 27.6875H40.3438C40.0951 27.6875 39.8567 27.7863 39.6808 27.9621C39.505 28.1379 39.4062 28.3764 39.4062 28.625C39.4062 28.8736 39.505 29.1121 39.6808 29.2879C39.8567 29.4637 40.0951 29.5625 40.3438 29.5625Z" fill="currentColor"/>
<path d="M40.3438 32.375H46.4375C46.6861 32.375 46.9246 32.2762 47.1004 32.1004C47.2762 31.9246 47.375 31.6861 47.375 31.4375C47.375 31.1889 47.2762 30.9504 47.1004 30.7746C46.9246 30.5988 46.6861 30.5 46.4375 30.5H40.3438C40.0951 30.5 39.8567 30.5988 39.6808 30.7746C39.505 30.9504 39.4062 31.1889 39.4062 31.4375C39.4062 31.6861 39.505 31.9246 39.6808 32.1004C39.8567 32.2762 40.0951 32.375 40.3438 32.375Z" fill="currentColor"/>
<path d="M40.3438 35.1875H46.4375C46.6861 35.1875 46.9246 35.0887 47.1004 34.9129C47.2762 34.7371 47.375 34.4986 47.375 34.25C47.375 34.0014 47.2762 33.7629 47.1004 33.5871C46.9246 33.4113 46.6861 33.3125 46.4375 33.3125H40.3438C40.0951 33.3125 39.8567 33.4113 39.6808 33.5871C39.505 33.7629 39.4062 34.0014 39.4062 34.25C39.4062 34.4986 39.505 34.7371 39.6808 34.9129C39.8567 35.0887 40.0951 35.1875 40.3438 35.1875Z" fill="currentColor"/>
</svg>
