<svg viewBox="0 0 75 75" fill="none" xmlns="http://www.w3.org/2000/svg">
<path d="M62.4077 34.8814L58.9208 34.3011C58.476 34.2276 58.0533 34.0557 57.6834 33.798C57.3136 33.5402 57.0059 33.2032 56.7829 32.8114L55.4664 30.5084C53.603 27.2561 50.9148 24.5528 47.673 22.6712C44.4312 20.7897 40.7505 19.7964 37.0022 19.7917H34.1787C30.4305 19.7963 26.7498 20.7894 23.508 22.6708C20.2662 24.5522 17.578 27.2553 15.7145 30.5074L14.2967 32.9795C14.0929 33.3344 13.8199 33.6448 13.4939 33.8922C13.1679 34.1396 12.7955 34.3189 12.3988 34.4196L9.04259 35.2581C8.20696 35.4673 7.43875 35.8868 6.81105 36.4768C6.18335 37.0667 5.71704 37.8075 5.45649 38.6285C5.44535 38.6549 5.44434 38.6863 5.43523 38.7136C5.2886 39.1856 5.21217 39.6767 5.20837 40.1709L5.20837 47.1355C5.20998 48.478 5.74399 49.765 6.69327 50.7143C7.64254 51.6636 8.92957 52.1976 10.2721 52.1992H14.004C14.5768 53.4109 15.482 54.4349 16.6142 55.1521C17.7465 55.8692 19.0591 56.25 20.3994 56.25C21.7397 56.25 23.0523 55.8692 24.1846 55.1521C25.3168 54.4349 26.222 53.4109 26.7948 52.1992H48.437C49.0098 53.4109 49.915 54.4349 51.0472 55.1521C52.1795 55.8692 53.4921 56.25 54.8324 56.25C56.1727 56.25 57.4853 55.8692 58.6176 55.1521C59.7498 54.4349 60.655 53.4109 61.2278 52.1992H64.9598C66.3022 52.1976 67.5893 51.6636 68.5385 50.7143C69.4878 49.765 70.0218 48.478 70.0234 47.1355V43.8715C70.0288 41.7125 69.2654 39.6222 67.8699 37.9749C66.4745 36.3277 64.5381 35.231 62.4077 34.8814ZM66.8779 40.0464C67.2784 40.6707 67.5782 41.3542 67.766 42.0718H66.9852C66.1818 42.0716 65.4109 41.7543 64.8403 41.1887C64.5195 40.8655 64.274 40.4754 64.1212 40.0464H66.8779ZM7.24397 40.0464H8.97474L8.46837 42.0718H7.23384V40.1709C7.23384 40.1284 7.24296 40.0879 7.24397 40.0464ZM20.3994 54.2246C19.3979 54.2246 18.4189 53.9277 17.5862 53.3713C16.7535 52.8149 16.1044 52.024 15.7212 51.0988C15.3379 50.1735 15.2376 49.1554 15.433 48.1731C15.6284 47.1908 16.1107 46.2886 16.8188 45.5804C17.527 44.8722 18.4293 44.39 19.4115 44.1946C20.3938 43.9992 21.4119 44.0995 22.3372 44.4827C23.2625 44.866 24.0533 45.515 24.6097 46.3477C25.1661 47.1805 25.4631 48.1595 25.4631 49.161C25.4615 50.5034 24.9275 51.7905 23.9782 52.7398C23.0289 53.689 21.7419 54.223 20.3994 54.2246ZM54.8324 54.2246C53.8309 54.2246 52.8519 53.9277 52.0192 53.3713C51.1865 52.8149 50.5374 52.024 50.1542 51.0988C49.7709 50.1735 49.6706 49.1554 49.866 48.1731C50.0614 47.1908 50.5437 46.2886 51.2518 45.5804C51.96 44.8722 52.8623 44.39 53.8445 44.1946C54.8268 43.9992 55.8449 44.0995 56.7702 44.4827C57.6955 44.866 58.4863 45.515 59.0427 46.3477C59.5991 47.1805 59.8961 48.1595 59.8961 49.161C59.8945 50.5034 59.3605 51.7905 58.4112 52.7398C57.4619 53.689 56.1749 54.223 54.8324 54.2246ZM64.9598 50.1737H61.8405C61.9945 49.1641 61.9285 48.1331 61.647 47.1513C61.3656 46.1695 60.8753 45.2602 60.2098 44.4855C59.5443 43.7108 58.7192 43.089 57.7911 42.6628C56.863 42.2365 55.8537 42.0159 54.8324 42.0159C53.8111 42.0159 52.8018 42.2365 51.8737 42.6628C50.9456 43.089 50.1206 43.7108 49.455 44.4855C48.7895 45.2602 48.2992 46.1695 48.0178 47.1513C47.7363 48.1331 47.6703 49.1641 47.8243 50.1737H27.4075C27.5615 49.1641 27.4955 48.1331 27.214 47.1513C26.9326 46.1695 26.4423 45.2602 25.7768 44.4855C25.1113 43.7108 24.2862 43.089 23.3581 42.6628C22.43 42.2365 21.4207 42.0159 20.3994 42.0159C19.3781 42.0159 18.3688 42.2365 17.4407 42.6628C16.5126 43.089 15.6876 43.7108 15.022 44.4855C14.3565 45.2602 13.8662 46.1695 13.5848 47.1513C13.3033 48.1331 13.2373 49.1641 13.3913 50.1737H10.2721C9.46627 50.1737 8.69349 49.8536 8.12371 49.2838C7.55394 48.7141 7.23384 47.9413 7.23384 47.1355V44.0973H9.25932C9.48508 44.0973 9.70437 44.0218 9.88236 43.8829C10.0603 43.744 10.1868 43.5497 10.2417 43.3307L11.2544 39.2797C11.2918 39.1304 11.2947 38.9745 11.2628 38.8239C11.2309 38.6733 11.1651 38.5319 11.0704 38.4106C10.9757 38.2892 10.8546 38.191 10.7162 38.1235C10.5779 38.056 10.426 38.0209 10.2721 38.0209H8.13417C8.52026 37.6333 9.00435 37.3578 9.53478 37.2239L12.892 36.3843C13.554 36.2172 14.1756 35.9185 14.7199 35.5062C15.2641 35.0938 15.7198 34.5762 16.0598 33.9841L17.4726 31.512C19.1588 28.5697 21.5911 26.1241 24.5242 24.422C27.4573 22.7198 30.7875 21.8213 34.1787 21.8171H37.0022C40.3941 21.8206 43.7251 22.7188 46.659 24.421C49.5928 26.1231 52.0258 28.5691 53.7123 31.512L55.0289 33.815C55.3997 34.4679 55.9117 35.0297 56.5274 35.4595C57.143 35.8893 57.8469 36.1762 58.5876 36.2992L62.0745 36.8805C63.0941 37.0492 64.0646 37.4384 64.9182 38.0209H62.9343C62.6657 38.0209 62.4081 38.1276 62.2182 38.3175C62.0282 38.5074 61.9215 38.765 61.9215 39.0336C61.9209 39.6988 62.0514 40.3575 62.3056 40.9722C62.5599 41.5868 62.9328 42.1453 63.4032 42.6157C63.8735 43.086 64.432 43.459 65.0467 43.7132C65.6613 43.9674 66.3201 44.098 66.9852 44.0973H67.998V47.1355C67.998 47.9413 67.6779 48.7141 67.1081 49.2838C66.5383 49.8536 65.7655 50.1737 64.9598 50.1737Z" fill="black"/>
<path d="M39.6413 35.9954H37.6158C37.3472 35.9954 37.0896 36.1021 36.8997 36.292C36.7098 36.4819 36.6031 36.7395 36.6031 37.0081C36.6031 37.2767 36.7098 37.5343 36.8997 37.7242C37.0896 37.9141 37.3472 38.0208 37.6158 38.0208H39.6413C39.9099 38.0208 40.1675 37.9141 40.3574 37.7242C40.5473 37.5343 40.654 37.2767 40.654 37.0081C40.654 36.7395 40.5473 36.4819 40.3574 36.292C40.1675 36.1021 39.9099 35.9954 39.6413 35.9954Z" fill="black"/>
<path d="M20.3994 35.9954H18.3739C18.1053 35.9954 17.8478 36.1021 17.6578 36.292C17.4679 36.4819 17.3612 36.7395 17.3612 37.0081C17.3612 37.2767 17.4679 37.5343 17.6578 37.7242C17.8478 37.9141 18.1053 38.0208 18.3739 38.0208H20.3994C20.668 38.0208 20.9256 37.9141 21.1155 37.7242C21.3054 37.5343 21.4121 37.2767 21.4121 37.0081C21.4121 36.7395 21.3054 36.4819 21.1155 36.292C20.9256 36.1021 20.668 35.9954 20.3994 35.9954Z" fill="black"/>
<path d="M54.8326 46.1228C54.2317 46.1228 53.6443 46.301 53.1446 46.6348C52.645 46.9686 52.2556 47.4431 52.0256 47.9983C51.7957 48.5535 51.7355 49.1643 51.8528 49.7537C51.97 50.3431 52.2593 50.8844 52.6842 51.3093C53.1091 51.7342 53.6505 52.0236 54.2399 52.1408C54.8292 52.258 55.4401 52.1979 55.9952 51.9679C56.5504 51.738 57.0249 51.3485 57.3588 50.8489C57.6926 50.3493 57.8708 49.7619 57.8708 49.161C57.8708 48.3552 57.5507 47.5824 56.9809 47.0126C56.4111 46.4429 55.6384 46.1228 54.8326 46.1228ZM54.8326 50.1737C54.6323 50.1737 54.4365 50.1143 54.2699 50.003C54.1034 49.8918 53.9736 49.7336 53.8969 49.5485C53.8203 49.3635 53.8002 49.1599 53.8393 48.9634C53.8784 48.767 53.9748 48.5865 54.1165 48.4449C54.2581 48.3032 54.4386 48.2068 54.635 48.1677C54.8315 48.1286 55.0351 48.1487 55.2201 48.2253C55.4052 48.302 55.5634 48.4318 55.6746 48.5983C55.7859 48.7649 55.8453 48.9607 55.8453 49.161C55.8453 49.4296 55.7386 49.6872 55.5487 49.8771C55.3588 50.067 55.1012 50.1737 54.8326 50.1737Z" fill="black"/>
<path d="M20.3994 46.1228C19.7985 46.1228 19.2111 46.301 18.7115 46.6348C18.2118 46.9686 17.8224 47.4431 17.5925 47.9983C17.3625 48.5535 17.3024 49.1643 17.4196 49.7537C17.5368 50.3431 17.8262 50.8844 18.2511 51.3093C18.676 51.7342 19.2173 52.0236 19.8067 52.1408C20.396 52.258 21.0069 52.1979 21.5621 51.9679C22.1172 51.738 22.5917 51.3485 22.9256 50.8489C23.2594 50.3493 23.4376 49.7619 23.4376 49.161C23.4376 48.3552 23.1175 47.5824 22.5477 47.0126C21.978 46.4429 21.2052 46.1228 20.3994 46.1228ZM20.3994 50.1737C20.1991 50.1737 20.0033 50.1143 19.8368 50.003C19.6702 49.8918 19.5404 49.7336 19.4638 49.5485C19.3871 49.3635 19.3671 49.1599 19.4061 48.9634C19.4452 48.767 19.5417 48.5865 19.6833 48.4449C19.8249 48.3032 20.0054 48.2068 20.2018 48.1677C20.3983 48.1286 20.6019 48.1487 20.787 48.2253C20.972 48.302 21.1302 48.4318 21.2415 48.5983C21.3528 48.7649 21.4121 48.9607 21.4121 49.161C21.4121 49.4296 21.3054 49.6872 21.1155 49.8771C20.9256 50.067 20.668 50.1737 20.3994 50.1737Z" fill="black"/>
<path d="M33.5651 22.8298H33.0384C30.0003 22.8216 27.03 23.728 24.5141 25.4311C21.9982 27.1342 20.0531 29.5551 18.932 32.3789L18.4459 33.5942C18.3845 33.7478 18.3617 33.9142 18.3795 34.0788C18.3973 34.2433 18.4552 34.401 18.548 34.538C18.6408 34.675 18.7658 34.7872 18.9121 34.8647C19.0583 34.9422 19.2213 34.9827 19.3868 34.9826H33.5651C33.8337 34.9826 34.0912 34.8759 34.2812 34.686C34.4711 34.4961 34.5778 34.2385 34.5778 33.9699V23.8425C34.5778 23.5739 34.4711 23.3163 34.2812 23.1264C34.0912 22.9365 33.8337 22.8298 33.5651 22.8298ZM32.5523 32.9571H20.8846C21.8466 30.63 23.4586 28.6292 25.5277 27.194C27.5969 25.7588 30.0356 24.9501 32.5523 24.8644V32.9571Z" fill="black"/>
<path d="M52.2478 32.378C51.4068 30.2696 50.1014 28.3779 48.4288 26.8434C48.2311 26.6615 47.9693 26.5657 47.7009 26.5769C47.4326 26.5881 47.1796 26.7054 46.9978 26.9031C46.816 27.1008 46.7201 27.3626 46.7313 27.631C46.7425 27.8994 46.8599 28.1523 47.0576 28.3341C48.4611 29.6207 49.5665 31.1986 50.2963 32.9572H38.6286V24.8645C40.5849 24.9379 42.5003 25.4457 44.2361 26.3512C44.354 26.4128 44.4828 26.4505 44.6153 26.4623C44.7478 26.474 44.8813 26.4596 45.0082 26.4198C45.1352 26.38 45.253 26.3155 45.355 26.2302C45.457 26.1448 45.5412 26.0402 45.6028 25.9223C45.6643 25.8044 45.7021 25.6755 45.7139 25.543C45.7256 25.4105 45.7112 25.277 45.6714 25.1501C45.6315 25.0232 45.5671 24.9054 45.4817 24.8034C45.3964 24.7014 45.2918 24.6172 45.1739 24.5556C43.0028 23.4236 40.5909 22.8317 38.1424 22.8299H37.6158C37.3472 22.8299 37.0896 22.9366 36.8997 23.1265C36.7098 23.3164 36.6031 23.574 36.6031 23.8426V33.97C36.6031 34.2386 36.7098 34.4962 36.8997 34.6861C37.0896 34.876 37.3472 34.9827 37.6158 34.9827H51.7941C51.9596 34.9828 52.1226 34.9423 52.2688 34.8648C52.415 34.7873 52.54 34.6751 52.6329 34.5381C52.7257 34.4011 52.7836 34.2434 52.8014 34.0789C52.8192 33.9143 52.7964 33.7479 52.735 33.5943L52.2478 32.378Z" fill="black"/>
</svg>
