<svg viewBox="0 0 75 75" fill="none" xmlns="http://www.w3.org/2000/svg">
<path d="M53.1244 45.2439H52.8974L50.4141 39.4519C50.8352 39.6364 51.2889 39.7346 51.7486 39.7408C51.931 39.7408 52.106 39.6683 52.235 39.5393C52.364 39.4103 52.4365 39.2353 52.4365 39.0529V33.5498C52.4365 33.3674 52.364 33.1924 52.235 33.0634C52.106 32.9344 51.931 32.862 51.7486 32.862C51.0323 32.8658 50.335 33.0933 49.7542 33.5126C49.1733 33.9319 48.7379 34.5221 48.5087 35.2008C48.3063 34.9182 48.048 34.6801 47.7498 34.5015C47.4516 34.3228 47.1199 34.2073 46.7752 34.1621C46.3383 34.1056 45.8946 34.1336 45.4682 34.2446H44.8698C43.7073 34.2446 43.1913 33.5567 42.3796 32.4355L41.9738 31.8645C42.3901 31.8433 42.7934 31.7128 43.1432 31.4862C43.4086 31.2935 43.6334 31.0503 43.8045 30.7706C43.9757 30.4908 44.0899 30.1799 44.1406 29.8559C44.3642 29.7271 44.5597 29.5548 44.7157 29.3493C44.8716 29.1437 44.9848 28.909 45.0486 28.659C45.0777 28.4618 45.0584 28.2605 44.9925 28.0724C44.9266 27.8843 44.8161 27.715 44.6703 27.579C44.3894 27.0981 44.2355 26.5537 44.2232 25.9969C44.4008 25.9863 44.5673 25.9072 44.6879 25.7764C44.8085 25.6456 44.8737 25.4731 44.8698 25.2952C44.8698 24.5662 44.725 23.8443 44.4438 23.1717C44.1625 22.499 43.7504 21.889 43.2313 21.377C42.7123 20.865 42.0966 20.4612 41.4202 20.1892C40.7438 19.9171 40.0201 19.7822 39.291 19.7922C37.8604 19.8203 36.4963 20.4012 35.4845 21.413C34.4727 22.4248 33.8918 23.789 33.8636 25.2196C33.8508 25.9489 33.9842 26.6735 34.2559 27.3504C34.5276 28.0274 34.9322 28.6431 35.4458 29.1611C35.598 29.3124 35.7588 29.4548 35.9273 29.5876C33.2721 30.2342 31.8757 32.7244 31.1603 34.8843C30.9567 34.6792 30.7145 34.5164 30.4477 34.4055C30.1808 34.2945 29.8946 34.2375 29.6056 34.2377H22.3003C21.9335 34.2371 21.5724 34.3288 21.2502 34.5043C20.9281 34.6798 20.6552 34.9335 20.4568 35.242C20.3574 35.3953 20.3229 35.5818 20.3609 35.7604C20.399 35.9391 20.5065 36.0953 20.6597 36.1948C20.813 36.2942 20.9994 36.3287 21.1781 36.2906C21.3568 36.2525 21.513 36.1451 21.6124 35.9918C21.6866 35.877 21.7885 35.7828 21.9087 35.7178C22.029 35.6529 22.1637 35.6194 22.3003 35.6204H23.5454V37.684C23.5454 37.8665 23.6179 38.0414 23.7469 38.1704C23.8759 38.2994 24.0508 38.3719 24.2333 38.3719H27.6727C27.8551 38.3719 28.0301 38.2994 28.1591 38.1704C28.2881 38.0414 28.3606 37.8665 28.3606 37.684V35.6135H29.6056C29.7131 35.6135 29.8196 35.6347 29.9189 35.6758C30.0182 35.7169 30.1085 35.7772 30.1845 35.8532C30.2605 35.9293 30.3208 36.0195 30.3619 36.1188C30.4031 36.2181 30.4242 36.3246 30.4242 36.4321V41.6806C30.4224 41.8965 30.3354 42.103 30.1821 42.255C30.0287 42.407 29.8216 42.4923 29.6056 42.4923H22.3003C22.1033 42.4978 21.9112 42.4307 21.7603 42.304C21.6094 42.1772 21.5103 41.9994 21.4817 41.8044H22.8575C23.04 41.8044 23.2149 41.732 23.3439 41.603C23.4729 41.474 23.5454 41.299 23.5454 41.1166C23.5454 40.9341 23.4729 40.7592 23.3439 40.6301C23.2149 40.5011 23.04 40.4287 22.8575 40.4287H21.4817V39.0529H22.1696C22.3521 39.0529 22.527 38.9804 22.656 38.8514C22.785 38.7224 22.8575 38.5475 22.8575 38.365C22.8575 38.1826 22.785 38.0076 22.656 37.8786C22.527 37.7496 22.3521 37.6771 22.1696 37.6771H18.7302C18.5478 37.6771 18.3728 37.7496 18.2438 37.8786C18.1148 38.0076 18.0423 38.1826 18.0423 38.365C18.0423 38.5475 18.1148 38.7224 18.2438 38.8514C18.3728 38.9804 18.5478 39.0529 18.7302 39.0529H20.106V40.4287H17.3544C17.172 40.4287 16.997 40.5011 16.868 40.6301C16.739 40.7592 16.6666 40.9341 16.6666 41.1166C16.6666 41.299 16.739 41.474 16.868 41.603C16.997 41.732 17.172 41.8044 17.3544 41.8044H20.106C20.1376 42.3617 20.381 42.8858 20.7864 43.2694C21.1917 43.6531 21.7284 43.8672 22.2866 43.8681H25.726C25.4077 44.1802 25.1365 44.5371 24.9212 44.9274C24.0026 46.7289 23.5307 48.7248 23.5454 50.7469C23.5454 50.9294 23.6179 51.1043 23.7469 51.2333C23.8759 51.3623 24.0508 51.4348 24.2333 51.4348H26.3451C26.5211 52.7568 27.1713 53.9699 28.1746 54.8485C29.178 55.7271 30.4663 56.2115 31.8 56.2115C33.1337 56.2115 34.422 55.7271 35.4253 54.8485C36.4287 53.9699 37.0789 52.7568 37.2549 51.4348H47.6695C47.8019 52.4858 48.2348 53.4762 48.9162 54.2871C49.5977 55.0981 50.4987 55.6952 51.5111 56.0067C52.5235 56.3182 53.6044 56.3308 54.6238 56.0432C55.6433 55.7555 56.558 55.1797 57.2583 54.385C57.9586 53.5902 58.4146 52.6102 58.5716 51.5627C58.7287 50.5151 58.58 49.4445 58.1435 48.4793C57.7071 47.5142 57.0013 46.6955 56.111 46.1216C55.2207 45.5477 54.1836 45.2429 53.1244 45.2439ZM26.9848 36.9893H24.9212V35.6135H26.9848V36.9893ZM51.0607 34.3547V38.2481C50.6576 38.1063 50.3085 37.8428 50.0615 37.4941C49.8145 37.1455 49.6819 36.7287 49.6819 36.3014C49.6819 35.8741 49.8145 35.4573 50.0615 35.1086C50.3085 34.7599 50.6576 34.4965 51.0607 34.3547ZM46.5757 35.5172C46.8454 35.5576 47.0959 35.6804 47.293 35.8688C47.4901 36.0573 47.624 36.3021 47.6763 36.5696L47.8552 36.9893C46.8975 37.4816 45.8289 37.7185 44.7528 37.6771C44.6581 37.2685 44.7077 36.8397 44.8933 36.4635C45.0789 36.0873 45.389 35.787 45.7709 35.6135C46.0303 35.5294 46.3042 35.4989 46.5757 35.5241V35.5172ZM43.1845 28.8034C43.07 28.8611 42.9739 28.9497 42.907 29.0591C42.8402 29.1684 42.8052 29.2943 42.8061 29.4225C42.801 29.5957 42.7599 29.7659 42.6852 29.9223C42.6106 30.0786 42.5042 30.2177 42.3728 30.3305C41.9807 30.5919 41.2515 30.53 40.3091 30.1586C40.2588 30.153 40.2081 30.153 40.1578 30.1586L40.0546 30.0692V27.4346C40.0546 27.0496 40.2075 26.6804 40.4797 26.4082C40.7519 26.136 41.1211 25.9831 41.506 25.9831H42.8061C42.8278 26.8736 43.1073 27.7386 43.611 28.4733C43.4865 28.6064 43.3427 28.72 43.1845 28.8103V28.8034ZM35.2394 25.2333C35.2738 24.166 35.7132 23.1519 36.4683 22.3968C37.2233 21.6417 38.2375 21.2023 39.3048 21.1679H39.3667C40.3425 21.1673 41.287 21.5124 42.0325 22.1421C42.778 22.7717 43.2763 23.6452 43.439 24.6074H41.506C40.7568 24.6092 40.0387 24.9076 39.5089 25.4374C38.9791 25.9672 38.6806 26.6853 38.6788 27.4346V29.3675C37.7072 29.2034 36.8264 28.6971 36.1956 27.9401C35.5648 27.1831 35.2256 26.2255 35.2394 25.2402V25.2333ZM37.3031 30.7983C39.5524 30.7983 40.3779 31.9746 41.2515 33.2128C41.8844 34.1208 42.6273 35.1113 43.8655 35.4622C43.476 36.0915 43.2999 36.8297 43.3633 37.5671C42.5095 37.3806 41.7043 37.0173 40.9993 36.5008C40.2944 35.9843 39.7055 35.3258 39.2704 34.5679C39.2329 34.477 39.1764 34.3952 39.1046 34.3279C39.0328 34.2607 38.9475 34.2097 38.8543 34.1783C38.7611 34.1468 38.6623 34.1357 38.5644 34.1457C38.4666 34.1557 38.3721 34.1866 38.2872 34.2363C38.2023 34.2859 38.129 34.3532 38.0723 34.4335C38.0157 34.5139 37.9769 34.6055 37.9586 34.7021C37.9403 34.7987 37.9429 34.8981 37.9663 34.9936C37.9897 35.0892 38.0333 35.1785 38.0941 35.2558C38.3435 35.6742 38.6289 36.0701 38.9471 36.439L38.8852 36.4802C38.244 37.2178 37.7929 38.101 37.5713 39.0529H31.8V38.365C31.8481 37.9454 32.6323 30.7983 37.3031 30.7983ZM31.8 41.6737V40.4287H37.9909C38.1285 40.4287 41.4304 40.4699 41.4304 43.8681V47.3075H38.6788V45.9317C38.6962 45.4754 38.6191 45.0204 38.4524 44.5952C38.2858 44.1701 38.033 43.7839 37.7101 43.461C37.3872 43.1381 37.0011 42.8854 36.5759 42.7187C36.1508 42.552 35.6957 42.4749 35.2394 42.4923H31.6418C31.7468 42.2322 31.8006 41.9543 31.8 41.6737ZM31.8 54.8742C30.8254 54.8732 29.8825 54.5274 29.1384 53.8978C28.3943 53.2683 27.897 52.3958 27.7346 51.4348H29.1448C29.3032 52.0177 29.649 52.5323 30.1289 52.8991C30.6087 53.266 31.196 53.4647 31.8 53.4647C32.404 53.4647 32.9913 53.266 33.4711 52.8991C33.951 52.5323 34.2968 52.0177 34.4552 51.4348H35.8654C35.7029 52.3958 35.2057 53.2683 34.4616 53.8978C33.7175 54.5274 32.7746 54.8732 31.8 54.8742ZM30.6168 51.4348H32.9832C32.8613 51.6401 32.6882 51.8102 32.4808 51.9283C32.2733 52.0464 32.0387 52.1085 31.8 52.1085C31.5613 52.1085 31.3267 52.0464 31.1192 51.9283C30.9118 51.8102 30.7387 51.6401 30.6168 51.4348ZM24.9212 50.059C25.0089 48.4758 25.4359 46.9298 26.1731 45.5259C26.4469 45.0168 26.8555 44.5928 27.3542 44.3004C27.8528 44.008 28.4223 43.8585 29.0003 43.8681H35.2394C35.5143 43.8532 35.7893 43.8964 36.0464 43.9948C36.3035 44.0933 36.537 44.2447 36.7317 44.4394C36.9264 44.6341 37.0779 44.8676 37.1763 45.1247C37.2748 45.3818 37.318 45.6568 37.3031 45.9317V47.9954C37.3031 48.7396 37.5444 49.4637 37.9909 50.059H24.9212ZM40.7425 50.059C40.3167 50.0578 39.9017 49.925 39.5545 49.6787C39.2072 49.4324 38.9446 49.0847 38.8026 48.6833H42.1182C42.2978 48.6717 42.4778 48.6978 42.6468 48.7597C42.8157 48.8217 42.9698 48.9183 43.0993 49.0432C43.2288 49.1682 43.3308 49.3188 43.3988 49.4854C43.4667 49.652 43.4992 49.831 43.494 50.0109C43.2659 50.0413 43.0362 50.0574 42.8061 50.059H40.7425ZM45.1518 49.2542C45.0524 49.3667 44.9392 49.4661 44.8147 49.55C44.7392 49.0299 44.5062 48.5455 44.1471 48.1618C43.788 47.7781 43.3201 47.5136 42.8061 47.4038V43.8681C42.8682 42.7457 42.5091 41.6406 41.7991 40.769C41.0892 39.8975 40.0795 39.3223 38.9677 39.1561C39.1441 38.5391 39.4462 37.9653 39.8551 37.4708C39.8729 37.4467 39.889 37.4214 39.9033 37.3951C40.971 38.2612 42.2558 38.8179 43.6178 39.0048L45.5577 47.4382C45.6666 48.0734 45.5208 48.7259 45.1518 49.2542ZM46.9334 47.1562L45.0417 39.0529C46.2057 39.0636 47.3558 38.7997 48.3986 38.2825L51.6454 45.8492L48.6463 50.059H46.2455C46.5475 49.6452 46.7638 49.1753 46.8819 48.6769C47 48.1785 47.0175 47.6615 46.9334 47.1562ZM53.1244 50.059H51.9412C52.0926 49.7968 52.3264 49.5918 52.6062 49.4759C52.886 49.36 53.1962 49.3396 53.4887 49.418C53.7813 49.4964 54.0398 49.6691 54.2241 49.9094C54.4085 50.1497 54.5084 50.4441 54.5084 50.7469C54.5084 51.0498 54.4085 51.3442 54.2241 51.5844C54.0398 51.8247 53.7813 51.9974 53.4887 52.0758C53.1962 52.1542 52.886 52.1339 52.6062 52.018C52.3264 51.9021 52.0926 51.6971 51.9412 51.4348H53.1244C53.3068 51.4348 53.4818 51.3623 53.6108 51.2333C53.7398 51.1043 53.8123 50.9294 53.8123 50.7469C53.8123 50.5645 53.7398 50.3895 53.6108 50.2605C53.4818 50.1315 53.3068 50.059 53.1244 50.059ZM50.3316 50.059L50.5723 49.722C50.5308 49.832 50.4963 49.9446 50.4691 50.059H50.3316ZM53.1244 54.8742C52.1497 54.8732 51.2069 54.5274 50.4628 53.8978C49.7187 53.2683 49.2214 52.3958 49.059 51.4348H50.4691C50.6198 52.015 50.9558 52.5302 51.4261 52.9019C51.8964 53.2737 52.4752 53.4817 53.0746 53.4943C53.6739 53.5069 54.261 53.3234 54.7465 52.9717C55.232 52.62 55.5893 52.1195 55.7642 51.5461C55.9391 50.9727 55.9219 50.3578 55.7154 49.7951C55.5088 49.2323 55.124 48.7524 54.6197 48.4284C54.1153 48.1044 53.5189 47.9539 52.9212 47.9999C52.3235 48.0459 51.7572 48.2859 51.3084 48.6833L52.7736 46.6196C52.8905 46.6196 53.0074 46.6196 53.1244 46.6196C54.219 46.6196 55.2688 47.0545 56.0428 47.8285C56.8168 48.6025 57.2517 49.6523 57.2517 50.7469C57.2517 51.8415 56.8168 52.8913 56.0428 53.6654C55.2688 54.4394 54.219 54.8742 53.1244 54.8742Z" fill="currentColor"/>
</svg>
