<svg viewBox="0 0 24 24" fill="none" xmlns="http://www.w3.org/2000/svg">
    <g clip-path="url(#clip0_51_204)">
        <path
            d="M13.2001 12.799C13.2001 12.5781 13.021 12.399 12.8001 12.399H11.1999C10.979 12.399 10.7999 12.5781 10.7999 12.799C10.7999 13.02 10.979 13.1991 11.1999 13.1991H12.8001C13.021 13.1991 13.2001 13.02 13.2001 12.799Z"
            fill="currentColor" />
        <path
            d="M10.3998 8.79871H9.59976C9.37882 8.79871 9.19974 8.97783 9.19974 9.19872C9.19974 9.41966 9.37886 9.59874 9.59976 9.59874C9.59976 9.81968 9.77888 9.99876 9.99977 9.99876C10.2207 9.99876 10.3998 9.81964 10.3998 9.59874C10.6207 9.59874 10.7998 9.41962 10.7998 9.19872C10.7999 8.97778 10.6208 8.79871 10.3998 8.79871Z"
            fill="currentColor" />
        <path
            d="M14.4002 8.79871H13.6001C13.3792 8.79871 13.2001 8.97783 13.2001 9.19872C13.2001 9.41966 13.3792 9.59874 13.6001 9.59874C13.6001 9.81968 13.7792 9.99876 14.0001 9.99876C14.2211 9.99876 14.4001 9.81964 14.4001 9.59874C14.6211 9.59874 14.8001 9.41962 14.8001 9.19872C14.8002 8.97778 14.6211 8.79871 14.4002 8.79871Z"
            fill="currentColor" />
        <path
            d="M11.5999 11.5989H12.4C12.621 11.5989 12.8 11.4198 12.8 11.1989C12.8 10.978 12.6209 10.7989 12.4 10.7989H11.5999C11.379 10.7989 11.1999 10.978 11.1999 11.1989C11.1999 11.4198 11.379 11.5989 11.5999 11.5989Z"
            fill="currentColor" />
        <path
            d="M10.7999 8.3987C11.0208 8.3987 11.1999 8.21962 11.1999 7.99868C11.1999 7.77774 11.0208 7.59866 10.7999 7.59866H9.19976C8.97882 7.59866 8.79974 7.77779 8.79974 7.99868C8.79974 8.21957 8.97887 8.3987 9.19976 8.3987H10.7999Z"
            fill="currentColor" />
        <path
            d="M13.2001 8.3987H14.8002C15.0211 8.3987 15.2002 8.21962 15.2002 7.99868C15.2002 7.77774 15.0211 7.59866 14.8002 7.59866H13.2001C12.9791 7.59866 12.8 7.77779 12.8 7.99868C12.8 8.21957 12.9791 8.3987 13.2001 8.3987Z"
            fill="currentColor" />
        <path
            d="M4.39935 24H19.6006C20.4844 24 21.2008 23.2836 21.2008 22.3999V21.1998C21.2001 20.6913 20.8798 20.2382 20.4007 20.0681V18.7024C20.4029 18.3079 20.2548 17.9275 19.9866 17.6382C19.9047 16.6778 19.2159 15.8783 18.2781 15.6553L16.3239 15.1668C15.969 14.8734 15.5856 14.6162 15.1794 14.3992L16.1155 13.5819C16.5514 13.2009 16.8011 12.6499 16.8004 12.071V11.5589C17.8804 11.341 18.5793 10.2889 18.3614 9.20885C18.2271 8.54303 17.7633 7.99131 17.1304 7.74459C17.4881 6.94966 17.6494 6.08034 17.6005 5.20999C17.6005 3.18102 15.6267 2.18334 14.669 1.81928C14.7264 1.77671 14.7879 1.7401 14.8526 1.71005C15.1536 1.57382 15.287 1.21946 15.1508 0.918594C15.0886 0.781239 14.9768 0.672433 14.8378 0.613975C10.6139 -1.19654 8.51729 1.51532 8.11966 2.11176C7.32389 2.49926 6.72698 3.20258 6.47393 4.05072C6.07391 5.42361 6.62792 6.93096 6.98955 7.70104C5.93923 8.03454 5.35807 9.15635 5.69156 10.2067C5.91105 10.898 6.48846 11.4158 7.19957 11.5589V12.071C7.19928 12.6494 7.44896 13.1997 7.88442 13.5803L8.82008 14.3992C8.41387 14.6168 8.03045 14.8745 7.67557 15.1685L5.7218 15.6553C4.78366 15.8785 4.09468 16.6786 4.01325 17.6395C3.74534 17.9284 3.59729 18.3083 3.59922 18.7024V20.0681C3.12011 20.2382 2.79979 20.6913 2.79913 21.1998V22.3999C2.79923 23.2836 3.51563 24 4.39935 24ZM10.7999 17.5062C10.2545 17.427 9.72878 17.2466 9.24972 16.9742C9.6653 16.6357 10.14 16.3772 10.6499 16.2117C10.6818 16.2018 10.7166 16.2084 10.7427 16.2293C10.7775 16.2536 10.7986 16.2929 10.7999 16.3353V17.5062ZM8.6597 17.5462C9.30734 17.9574 10.0384 18.2191 10.7999 18.3123V18.7995C10.3639 19.1272 10.0803 19.6183 10.0142 20.1596L7.99965 21.3261V21.1997C7.9989 20.862 7.85498 20.5404 7.60362 20.3148C7.62584 19.2978 7.99895 18.3197 8.6597 17.5462ZM7.99965 22.7999V22.1871C8.09936 22.1694 8.19546 22.1353 8.28406 22.0863L10.6003 20.7461C10.7239 20.6746 10.8 20.5425 10.7999 20.3997C10.8006 19.9716 11.0292 19.5764 11.3999 19.3624C11.5238 19.2909 11.6001 19.1586 11.6 19.0156V16.3354C11.5991 16.0371 11.4558 15.7572 11.2143 15.5821C10.9819 15.41 10.6805 15.3609 10.4055 15.4506C8.40201 16.1056 6.98725 17.8988 6.81638 19.9997C6.81038 19.9997 6.80517 19.9997 6.79959 19.9997H6.01395C6.04227 19.5521 6.12173 19.1092 6.25078 18.6796C7.19994 15.5045 10.5433 13.6999 13.7185 14.6491C15.656 15.2283 17.1714 16.7443 17.7497 18.682C17.8788 19.1107 17.9581 19.5529 17.9861 19.9997H17.2005C17.1949 19.9997 17.1901 19.9997 17.1845 19.9997C17.0283 17.9076 15.6257 16.1162 13.6322 15.4626C13.3457 15.366 13.0302 15.4129 12.7841 15.5886C12.5412 15.7612 12.3979 16.0415 12.4001 16.3394V19.0156C12.3999 19.1587 12.4762 19.291 12.6001 19.3625C12.9708 19.5765 13.1995 19.9717 13.2002 20.3997C13.2002 20.5427 13.2764 20.6747 13.4002 20.7462L15.7204 22.0863C15.8076 22.1345 15.9023 22.1681 16.0004 22.1855V22.7999C16.0017 22.9366 16.0266 23.0719 16.074 23.2H15.6923C15.6148 23.023 15.4832 22.875 15.3163 22.7775L12.9961 21.4374C12.8709 21.3651 12.7165 21.3661 12.5921 21.4398C12.2252 21.6494 11.7749 21.6494 11.408 21.4398C11.2836 21.3661 11.1291 21.3651 11.0039 21.4374L8.67653 22.7795C8.51302 22.8783 8.38396 23.0252 8.30689 23.2H7.92605C7.9734 23.0718 7.99834 22.9365 7.99965 22.7999ZM13.2001 18.3123C13.9645 18.219 14.6982 17.9556 15.3475 17.5414C16.0084 18.316 16.3795 19.2964 16.3971 20.3145C16.1454 20.54 16.0012 20.8618 16.0003 21.1997V21.3242L13.9857 20.1596C13.9198 19.6182 13.6361 19.1271 13.2001 18.7995V18.3123ZM13.2001 17.5062V16.3393C13.1993 16.2998 13.2184 16.2625 13.2509 16.2401C13.2885 16.2142 13.3363 16.208 13.3793 16.2233C13.879 16.3882 14.345 16.6416 14.755 16.9714C14.2748 17.2455 13.7473 17.427 13.2001 17.5062ZM14.4478 23.1999H9.54858L11.2163 22.2398C11.717 22.4522 12.2825 22.4522 12.7832 22.2398L14.4478 23.1999ZM20.4007 21.1997V22.3998C20.4007 22.8417 20.0425 23.1999 19.6006 23.1999H17.2004C16.9795 23.1999 16.8004 23.0208 16.8004 22.7999V21.1998C16.8004 20.9788 16.9795 20.7998 17.2004 20.7998H18.4005C18.6214 20.7998 18.8005 20.6207 18.8005 20.3997C18.8019 19.7407 18.706 19.0851 18.5161 18.454C18.5029 18.4092 18.4853 18.3664 18.4709 18.322C18.5452 18.1837 18.6696 18.0791 18.8185 18.0295C18.9954 17.969 19.1909 18.0017 19.3385 18.1164C19.5126 18.2601 19.6095 18.4769 19.6005 18.7024V20.3997C19.6005 20.6207 19.7797 20.7998 20.0006 20.7998C20.2215 20.7998 20.4007 20.9788 20.4007 21.1997ZM19.059 17.2106C18.893 17.1998 18.7265 17.2198 18.5678 17.2694C18.4162 17.3226 18.2747 17.401 18.1493 17.5014C17.9391 17.0595 17.6814 16.6419 17.3808 16.2557L18.0841 16.4313C18.5083 16.5342 18.8652 16.8195 19.059 17.2106ZM7.24316 4.27231C7.44784 3.60223 7.93561 3.05534 8.57809 2.7758C8.65009 2.73961 8.70968 2.68279 8.74929 2.61256C8.81572 2.49255 10.375 -0.211282 14.1586 1.20287C14.0353 1.29869 13.9256 1.41078 13.8325 1.53608C13.7148 1.68872 13.6776 1.88857 13.7325 2.07332C13.7896 2.26154 13.9341 2.41056 14.1205 2.47333C14.7494 2.67815 16.8004 3.47823 16.8004 5.20999C16.8162 5.79874 16.7449 6.38665 16.5888 6.95454C16.4238 6.57093 16.14 6.25051 15.7791 6.04045C15.7087 6.0044 15.6291 5.99043 15.5507 6.00046C13.4101 6.26767 12.8084 5.98368 11.8119 5.51282C11.2658 5.24463 10.7026 5.01234 10.1262 4.81756C9.53756 4.57337 8.8655 4.64209 8.33849 5.00039C7.85878 5.39647 7.52697 5.94299 7.39683 6.55133C7.124 5.82298 7.0706 5.03067 7.24316 4.27231ZM8.41087 12.9775C8.14933 12.7488 7.99941 12.4183 7.99965 12.071V11.1989C7.99965 10.978 7.82052 10.7989 7.59963 10.7989C6.94084 10.8044 6.4023 10.2748 6.39676 9.61604C6.39245 9.10389 6.71559 8.64617 7.19961 8.47871V9.19877C7.19961 9.41971 7.37874 9.59879 7.59963 9.59879C7.82052 9.59879 7.99965 9.41967 7.99965 9.19877V7.99867C7.99965 7.50705 8.14446 6.12774 8.80611 5.65088C9.12685 5.44832 9.52809 5.42094 9.8734 5.57808C10.4193 5.76344 10.9526 5.98405 11.47 6.23856C12.4981 6.72418 13.2461 7.07863 15.5035 6.81461C15.8462 7.1091 16.0303 7.54779 16.0003 7.99872V9.19882C16.0003 9.41976 16.1794 9.59884 16.4004 9.59884C16.6213 9.59884 16.8004 9.41972 16.8004 9.19882V8.47876C17.423 8.69417 17.7531 9.37354 17.5377 9.99614C17.3702 10.4802 16.9125 10.8033 16.4004 10.799C16.1794 10.799 16.0003 10.9781 16.0003 11.199V12.0711C16.0006 12.4185 15.8507 12.749 15.5891 12.9776L14.375 14.0393C12.8457 13.4541 11.1543 13.4541 9.62499 14.0393L8.41087 12.9775ZM5.91588 16.4314L6.61874 16.2557C6.31805 16.6417 6.0605 17.0594 5.85067 17.5015C5.72536 17.4009 5.58388 17.3225 5.43223 17.2695C5.2735 17.2198 5.10694 17.1998 4.94099 17.2107C5.13474 16.8195 5.49167 16.5342 5.91588 16.4314ZM3.59926 21.1997C3.59926 20.9788 3.77834 20.7997 3.99928 20.7997C4.22022 20.7997 4.3993 20.6206 4.3993 20.3997V18.7024C4.3903 18.477 4.48687 18.2603 4.66051 18.1163C4.80822 18.0017 5.00362 17.9691 5.18054 18.0295C5.32952 18.079 5.45389 18.1836 5.52814 18.3219C5.51413 18.3655 5.49655 18.4072 5.48375 18.4511C5.29361 19.0832 5.19779 19.7397 5.19934 20.3997C5.19934 20.6206 5.37846 20.7997 5.59935 20.7997H6.79945C7.02039 20.7997 7.19947 20.9788 7.19947 21.1997V22.7999C7.19947 23.0208 7.02039 23.1999 6.79945 23.1999H4.39925C3.95737 23.1999 3.59917 22.8417 3.59917 22.3998V21.1997H3.59926Z"
            fill="currentColor" />
        <path
            d="M12 20.7997C12.2209 20.7997 12.4 20.6206 12.4 20.3997C12.4 20.1788 12.2209 19.9997 12 19.9997C11.779 19.9997 11.5999 20.1788 11.5999 20.3997C11.5999 20.6206 11.779 20.7997 12 20.7997Z"
            fill="currentColor" />
    </g>
</svg>