<svg viewBox="0 0 40 46" fill="none" xmlns="http://www.w3.org/2000/svg">
    <path
        d="M36.4261 15.0017C38.0379 15.0017 39.3445 13.6807 39.3445 12.0511V3.61336C39.3445 1.98377 38.038 0.662689 36.4261 0.662689H5.5885C3.9767 0.662689 2.67004 1.98377 2.67004 3.61336V12.051C2.67004 13.6806 3.97661 15.0017 5.5885 15.0017L36.4261 15.0017Z"
        fill="#B9F0A6" />
    <path
        d="M18.6213 13.01C18.2208 13.01 17.8577 12.784 17.6653 12.4288C17.1042 11.3929 16.032 10.6811 14.8034 10.6638L14.7568 10.6635C13.8682 10.6635 13.0329 11.0132 12.405 11.6482C12.174 11.8817 11.9815 12.1435 11.8302 12.426C11.6389 12.7831 11.2745 13.0101 10.8728 13.0101H9.86002C8.24822 13.0101 6.94157 11.689 6.94157 10.0595V1.62174C6.94157 1.28593 6.99786 0.963543 7.10004 0.662811H5.5885C3.9767 0.662811 2.67004 1.98389 2.67004 3.61348V12.0512C2.67004 13.6808 3.9767 15.0019 5.5885 15.0019H11.4309H18.0818H36.4261C37.7057 15.0019 38.7932 14.1682 39.1869 13.0094L18.6213 13.01Z"
        fill="#8BE76B" />
    <path
        d="M12.742 21.1134V14.026C12.742 13.463 12.9675 12.954 13.332 12.5855C13.7027 12.2107 14.2173 11.9812 14.7854 11.9892C15.8939 12.0047 16.7706 12.9499 16.7706 14.0707V27.6883C16.7706 27.8899 17.0085 27.9945 17.1543 27.8571L20.3141 24.8807C20.62 24.5926 21.0116 24.4468 21.4032 24.4468C21.7668 24.4468 22.1313 24.5722 22.4285 24.8241C23.0098 25.3163 23.1689 26.1532 22.8096 26.8275L17.9454 36.3877C17.8046 36.6651 17.6158 36.9161 17.3903 37.1291L13.2874 40.9874V43.9977C13.2874 44.3687 12.9886 44.6686 12.6216 44.6659L2.59983 44.5926C2.23665 44.5899 1.94366 44.2915 1.94366 43.9243V40.3529L0.974311 38.6677C0.765407 38.3053 0.655273 37.8935 0.655273 37.4746V24.8674V21.1133C0.655273 20.5513 0.880785 20.0423 1.24527 19.6738C1.60976 19.3052 2.11323 19.0772 2.67002 19.0772C3.78272 19.0772 4.68476 19.9892 4.68476 21.1133C4.68476 20.5513 4.91028 20.0423 5.27477 19.6738C5.63926 19.3052 6.14272 19.0772 6.69864 19.0772C7.81134 19.0772 8.71338 19.9892 8.71338 21.1133C8.71338 20.5513 8.93889 20.0423 9.30338 19.6738C9.66787 19.3052 10.1713 19.0772 10.7273 19.0772C11.84 19.0773 12.742 19.9893 12.742 21.1134Z"
        fill="#FFE5C2" />
    <path
        d="M5.3863 44.6131C5.06289 44.5693 4.81378 44.2629 4.81378 43.9245V41.3269C4.81378 40.6891 4.64674 40.0627 4.32963 39.5114L3.84443 38.6678C3.63552 38.3055 3.52539 37.8937 3.52539 37.4748V24.8676V21.1135C3.52539 20.557 3.74741 20.0528 4.10569 19.6852C3.74032 19.3103 3.23179 19.0774 2.67002 19.0774C2.11323 19.0774 1.60976 19.3054 1.24527 19.6739C0.880785 20.0425 0.655273 20.5515 0.655273 21.1135V24.8676V37.4748C0.655273 37.8937 0.765407 38.3055 0.974311 38.6678L1.94366 40.3531V43.9245C1.94366 44.2917 2.23665 44.59 2.59983 44.5928L5.3863 44.6131Z"
        fill="#FED2A4" />
    <path
        d="M22.8497 24.3162C21.9796 23.5796 20.6974 23.614 19.8671 24.396L17.4265 26.6954V14.0258C17.4265 12.5373 16.2287 11.3264 14.7564 11.3264C13.2842 11.3264 12.0865 12.5373 12.0865 14.0258V18.7914C11.6881 18.5521 11.2236 18.4143 10.7276 18.4143C9.92426 18.4143 9.20315 18.7755 8.71323 19.345C8.2234 18.7755 7.50228 18.4143 6.69883 18.4143C5.89538 18.4143 5.17436 18.7755 4.68444 19.345C4.1946 18.7755 3.47349 18.4143 2.67004 18.4143C1.19775 18.4143 0 19.6252 0 21.1138V26.5523C0 26.9185 0.293427 27.2151 0.655557 27.2151C1.01769 27.2151 1.31111 26.9185 1.31111 26.5523V21.1138C1.31111 20.3563 1.92078 19.7399 2.67004 19.7399C3.41921 19.7399 4.02879 20.3563 4.02879 21.1138L4.02888 24.8678C4.02888 25.2339 4.32231 25.5306 4.68444 25.5306C5.04657 25.5306 5.33999 25.2339 5.33999 24.8678V21.1138C5.33999 20.3563 5.94957 19.7399 6.69883 19.7399C7.44809 19.7399 8.05767 20.3563 8.05767 21.1138V24.8678C8.05767 25.2339 8.3511 25.5306 8.71323 25.5306C9.07536 25.5306 9.36878 25.2339 9.36878 24.8678V21.1138C9.36878 20.3563 9.97837 19.7399 10.7276 19.7399C11.4769 19.7399 12.0865 20.3563 12.0865 21.1138V24.8712C12.0865 25.2373 12.3799 25.534 12.742 25.534C13.1041 25.534 13.3976 25.2373 13.3976 24.8712V14.0258C13.3976 13.2683 14.0072 12.6519 14.7564 12.6519C15.5057 12.6519 16.1153 13.2683 16.1153 14.0258V28.2189C16.1153 28.4827 16.2701 28.7215 16.5094 28.8267C16.7487 28.9319 17.027 28.8837 17.2178 28.7038L20.7609 25.3659C21.108 25.0389 21.6442 25.0247 22.0078 25.3325C22.3487 25.6211 22.4432 26.118 22.2326 26.5139C22.2306 26.5175 22.2287 26.5211 22.227 26.5247L19.7386 31.4153C19.5728 31.7408 19.6997 32.1404 20.0216 32.3078C20.1176 32.3578 20.22 32.3815 20.321 32.3815C20.5587 32.3815 20.7882 32.2502 20.9044 32.0217L23.3903 27.1362C23.8902 26.19 23.6633 25.0051 22.8497 24.3162Z"
        fill="black" />
    <path
        d="M19.3431 33.6413C19.0213 33.4737 18.626 33.602 18.4602 33.9274L17.3627 36.0844C17.2557 36.2945 17.1147 36.4827 16.9435 36.6438L12.8405 40.5026C12.7073 40.628 12.6315 40.8038 12.6315 40.9879V44.6705C12.6315 45.0367 12.9249 45.3333 13.287 45.3333C13.6492 45.3333 13.9426 45.0367 13.9426 44.6705V41.2766L17.8366 37.6143C18.1192 37.3484 18.352 37.0377 18.5285 36.6908L19.6261 34.5339C19.7917 34.2084 19.665 33.8087 19.3431 33.6413Z"
        fill="black" />
    <path
        d="M1.54062 38.3346C1.39045 38.0739 1.31118 37.7765 1.31118 37.4747V29.377C1.31118 29.0108 1.01775 28.7142 0.655618 28.7142C0.293489 28.7142 6.10352e-05 29.0108 6.10352e-05 29.377V37.4747C6.10352e-05 38.0105 0.140875 38.5384 0.407381 39.0014L1.28819 40.5317V44.5878C1.28819 44.9539 1.58161 45.2506 1.94374 45.2506C2.30587 45.2506 2.5993 44.9539 2.5993 44.5878V40.3528C2.5993 40.2357 2.56853 40.1207 2.51032 40.0195L1.54062 38.3346Z"
        fill="black" />
    <path
        d="M5.58851 15.6646H10.1198C10.4819 15.6646 10.7754 15.3679 10.7754 15.0018C10.7754 14.6356 10.4819 14.339 10.1198 14.339H5.58851C4.34077 14.339 3.32561 13.3127 3.32561 12.0511V3.61346C3.3257 2.35186 4.34077 1.32559 5.58851 1.32559H32.0888C32.4509 1.32559 32.7443 1.02892 32.7443 0.662794C32.7443 0.296667 32.4509 0 32.0888 0H5.58851C3.61782 0 2.01459 1.62102 2.01459 3.61346V12.0512C2.01459 14.0435 3.61782 15.6646 5.58851 15.6646Z"
        fill="black" />
    <path
        d="M36.426 0H34.8825C34.5204 0 34.2269 0.296666 34.2269 0.662794C34.2269 1.02892 34.5204 1.32559 34.8825 1.32559H36.426C37.6738 1.32559 38.6889 2.35186 38.6889 3.61346V12.0512C38.6889 13.3127 37.6739 14.3391 36.426 14.3391H19.3932C19.031 14.3391 18.7376 14.6357 18.7376 15.0019C18.7376 15.368 19.031 15.6646 19.3932 15.6646H36.426C38.3967 15.6646 40 14.0436 40 12.0512V3.61346C40 1.62102 38.3967 0 36.426 0Z"
        fill="black" />
    <path
        d="M32.6884 4.53997C32.4435 4.27034 32.0287 4.25276 31.7622 4.50055L30.2644 5.89242V4.92686C30.2644 4.56074 29.9709 4.26407 29.6088 4.26407C29.2467 4.26407 28.9532 4.56074 28.9532 4.92686V9.80794C28.9532 10.1741 29.2467 10.4707 29.6088 10.4707C29.9709 10.4707 30.2644 10.1741 30.2644 9.80794V8.66794L31.922 10.2849C32.0492 10.409 32.2133 10.4707 32.3771 10.4707C32.5488 10.4707 32.7203 10.4029 32.8489 10.2681C33.1003 10.0047 33.0929 9.58507 32.8323 9.331L30.7194 7.26997L32.6494 5.47645C32.916 5.22874 32.9335 4.8095 32.6884 4.53997Z"
        fill="white" />
    <path
        d="M11.1062 4.29489H9.70384C9.34171 4.29489 9.04828 4.59156 9.04828 4.95769V7.20535V7.20898V9.83885C9.04828 10.0152 9.11777 10.1842 9.24136 10.3086C9.36417 10.4322 9.53051 10.5016 9.70384 10.5016H9.70681C9.70681 10.5016 10.9957 10.4958 11.3511 10.4958C12.4291 10.4958 13.3062 9.60908 13.3062 8.51919C13.3062 7.91472 13.0361 7.37299 12.6118 7.01014C12.7761 6.73901 12.8726 6.42149 12.8726 6.0809C12.8726 5.09599 12.0803 4.29489 11.1062 4.29489ZM11.1062 5.62048C11.3572 5.62048 11.5615 5.82701 11.5615 6.08081C11.5615 6.33462 11.3572 6.54114 11.1062 6.54114C11.0004 6.54114 10.7986 6.54176 10.5803 6.54256H10.3594V5.62048H11.1062ZM11.3511 9.17014C11.1675 9.17014 10.7354 9.17173 10.3594 9.17323V7.86894C10.4348 7.86868 10.5114 7.86832 10.586 7.86806H11.351C11.7062 7.86806 11.995 8.16013 11.995 8.51901C11.9951 8.87807 11.7063 9.17014 11.3511 9.17014Z"
        fill="white" />
    <path
        d="M14.3421 7.61824C14.3421 9.3294 15.719 10.7216 17.4115 10.7216C19.104 10.7216 20.481 9.3294 20.481 7.61824C20.481 5.90709 19.104 4.51495 17.4115 4.51495C15.719 4.51495 14.3421 5.90709 14.3421 7.61824ZM19.1699 7.61824C19.1699 8.59856 18.3811 9.39603 17.4115 9.39603C16.442 9.39603 15.6532 8.59856 15.6532 7.61824C15.6532 6.63802 16.442 5.84054 17.4115 5.84054C18.3811 5.84054 19.1699 6.63802 19.1699 7.61824Z"
        fill="white" />
    <path
        d="M21.4584 7.61824C21.4584 9.3294 22.8354 10.7216 24.5278 10.7216C26.2203 10.7216 27.5973 9.3294 27.5973 7.61824C27.5973 5.90709 26.2203 4.51495 24.5278 4.51495C22.8354 4.51495 21.4584 5.90709 21.4584 7.61824ZM26.2862 7.61824C26.2862 8.59856 25.4975 9.39603 24.5278 9.39603C23.5583 9.39603 22.7695 8.59856 22.7695 7.61824C22.7695 6.63802 23.5583 5.84054 24.5278 5.84054C25.4975 5.84054 26.2862 6.63802 26.2862 7.61824Z"
        fill="white" />
    <path
        d="M38.3298 18.4568L37.0466 17.5054C36.7547 17.289 36.3444 17.3527 36.1303 17.6478C35.9161 17.9431 35.9792 18.3578 36.2712 18.5742L37.5544 19.5256C37.6713 19.6123 37.807 19.6541 37.9416 19.6541C38.1434 19.6541 38.3424 19.5601 38.4708 19.3832C38.6849 19.0879 38.6218 18.6732 38.3298 18.4568Z"
        fill="black" />
    <path
        d="M29.9245 17.5054L28.6412 18.4568C28.3493 18.6732 28.2862 19.088 28.5003 19.3832C28.6288 19.5603 28.8278 19.6541 29.0295 19.6541C29.164 19.6541 29.2999 19.6123 29.4167 19.5257L30.7 18.5742C30.9919 18.3578 31.0551 17.943 30.8409 17.6478C30.6266 17.3527 30.2165 17.2889 29.9245 17.5054Z"
        fill="black" />
    <path
        d="M33.4855 18.4143C33.1234 18.4143 32.83 18.7109 32.83 19.0771V20.6963C32.83 21.0624 33.1234 21.3591 33.4855 21.3591C33.8476 21.3591 34.1411 21.0624 34.1411 20.6963V19.0771C34.1411 18.711 33.8476 18.4143 33.4855 18.4143Z"
        fill="black" />
</svg>