<svg viewBox="0 0 24 24" fill="none" xmlns="http://www.w3.org/2000/svg">
<g clip-path="url(#clip0_24_1503)">
<path fill-rule="evenodd" clip-rule="evenodd" d="M22.3784 0H1.62162C0.72973 0 0 0.72973 0 1.62162V22.3784C0 23.2703 0.72973 24 1.62162 24H22.3784C23.2703 24 24 23.2703 24 22.3784V1.62162C24 0.72973 23.2703 0 22.3784 0Z" fill="#A50064"/>
<path d="M16.6054 11.2703C18.5108 11.2703 20.0513 9.72974 20.0513 7.82433C20.0513 5.91893 18.5108 4.37839 16.6054 4.37839C14.7 4.37839 13.1595 5.91893 13.1595 7.82433C13.1595 9.72974 14.7 11.2703 16.6054 11.2703ZM16.6054 6.35677C17.4162 6.35677 18.073 7.01352 18.073 7.82433C18.073 8.63514 17.4162 9.2919 16.6054 9.2919C15.7946 9.2919 15.1378 8.63514 15.1378 7.82433C15.1378 7.01352 15.7946 6.35677 16.6054 6.35677Z" fill="white"/>
<path d="M16.6054 12.7622C14.7 12.7622 13.1595 14.3027 13.1595 16.2081C13.1595 18.1135 14.7 19.6541 16.6054 19.6541C18.5108 19.6541 20.0513 18.1135 20.0513 16.2081C20.0513 14.3027 18.5108 12.7622 16.6054 12.7622ZM16.6054 17.6757C15.7946 17.6757 15.1378 17.0189 15.1378 16.2081C15.1378 15.3973 15.7946 14.7406 16.6054 14.7406C17.4162 14.7406 18.073 15.3973 18.073 16.2081C18.073 17.0189 17.4162 17.6757 16.6054 17.6757Z" fill="white"/>
<path d="M9.58378 12.7622C8.99999 12.7622 8.46486 12.9568 8.03513 13.2811C7.6054 12.9568 7.06216 12.7622 6.48648 12.7622C5.05945 12.7622 3.89999 13.9216 3.89999 15.3487V19.6622H5.87837V15.3243C5.87837 15 6.13783 14.7406 6.46216 14.7406C6.78648 14.7406 7.04594 15 7.04594 15.3243V19.6541H9.02432V15.3243C9.02432 15 9.28378 14.7406 9.6081 14.7406C9.93243 14.7406 10.1919 15 10.1919 15.3243V19.6541H12.1622V15.3406C12.1622 13.9216 11.0108 12.7622 9.58378 12.7622Z" fill="white"/>
<path d="M9.58378 4.37839C9 4.37839 8.46486 4.57298 8.03513 4.89731C7.60541 4.57298 7.06216 4.37839 6.48649 4.37839C5.05135 4.37839 3.89189 5.53785 3.89189 6.96487V11.2703H5.87027V6.94055C5.87027 6.61623 6.12973 6.35677 6.45405 6.35677C6.77838 6.35677 7.03784 6.61623 7.03784 6.94055V11.2703H9.01622V6.94055C9.01622 6.61623 9.27568 6.35677 9.6 6.35677C9.92432 6.35677 10.1838 6.61623 10.1838 6.94055V11.2703H12.1622V6.96487C12.1622 5.53785 11.0108 4.37839 9.58378 4.37839Z" fill="white"/>
</g>
</svg>
