<svg viewBox="0 0 75 75" fill="none" xmlns="http://www.w3.org/2000/svg">
<path d="M14.1565 42.0898L14.7171 42.229C13.2715 43.0342 12.1339 44.2962 11.4826 45.8174C10.8312 47.3386 10.703 49.0328 11.118 50.6347C11.533 52.2365 12.4677 53.6554 13.7756 54.669C15.0836 55.6826 16.6909 56.2336 18.3456 56.2356C20.2985 56.2398 22.1734 55.47 23.5599 54.0948L24.6813 54.3443C24.7488 54.3592 24.8177 54.3667 24.8869 54.3667C25.095 54.3665 25.2971 54.2968 25.4612 54.1686C25.6252 54.0405 25.7418 53.8612 25.7924 53.6593L26.0521 52.6202L27.4847 52.9426C27.6722 52.9841 27.868 52.9668 28.0453 52.893L33.4839 50.6289H47.3139C47.4521 50.6288 47.5886 50.5981 47.7135 50.539C47.8384 50.4798 47.9486 50.3937 48.0363 50.2868C48.0428 50.2794 48.0437 50.2681 48.0493 50.2607H48.054L50.649 46.891H51.2966C51.1357 47.501 51.0534 48.1291 51.0518 48.7599C51.0494 50.0107 51.3608 51.242 51.9576 52.3412C52.5543 53.4404 53.4173 54.3723 54.4676 55.0515C55.5178 55.7308 56.7216 56.1356 57.9689 56.2291C59.2161 56.3225 60.4669 56.1016 61.6066 55.5864C62.7463 55.0712 63.7385 54.2784 64.4924 53.2804C65.2463 52.2824 65.7378 51.1112 65.9218 49.8741C66.1058 48.6369 65.9764 47.3734 65.5456 46.1992C65.1148 45.025 64.3962 43.9777 63.4558 43.1532H64.1342C64.2996 43.1531 64.462 43.1092 64.6049 43.0259C64.7478 42.9425 64.8659 42.8228 64.9474 42.6788C65.0288 42.5348 65.0706 42.3718 65.0684 42.2065C65.0662 42.0411 65.0202 41.8792 64.935 41.7375C64.1313 40.3407 63.0106 39.1522 61.6635 38.2678C60.3163 37.3834 58.7802 36.8277 57.179 36.6456L50.9284 27.2673H50.9677C50.9779 27.2673 50.9854 27.2617 50.9957 27.2617C51.006 27.2617 51.0321 27.2673 51.0518 27.2673C52.0431 27.2673 52.9938 26.8735 53.6948 26.1726C54.3958 25.4716 54.7896 24.5208 54.7896 23.5295C54.7896 22.5382 54.3958 21.5874 53.6948 20.8864C52.9938 20.1855 52.0431 19.7917 51.0518 19.7917C50.4191 19.7959 49.798 19.9626 49.2483 20.2757C49.1968 20.2921 49.1468 20.3128 49.0987 20.3374L45.1946 22.595H41.7072C41.4593 22.595 41.2216 22.6935 41.0464 22.8687C40.8711 23.044 40.7727 23.2817 40.7727 23.5295V26.3329C40.7727 26.5807 40.8711 26.8184 41.0464 26.9936C41.2216 27.1689 41.4593 27.2673 41.7072 27.2673H44.7554L48.1895 38.4276L45.7636 44.0876H37.6675L36.1882 40.39L36.3938 39.9732C36.8287 39.1073 36.9791 38.1262 36.8237 37.1698C37.2496 37.3624 37.7171 37.4451 38.1833 37.4105C38.6495 37.3758 39.0995 37.2248 39.4923 36.9714C39.8851 36.7179 40.2081 36.37 40.4318 35.9595C40.6554 35.549 40.7727 35.089 40.7727 34.6215C40.7743 34.0235 40.6577 33.431 40.4295 32.8781C40.2014 32.3253 39.8663 31.823 39.4434 31.4001C39.0205 30.9772 38.5181 30.642 37.9653 30.4139C37.4124 30.1857 36.8199 30.0691 36.2219 30.0707H29.6255L20.1417 28.7158C19.6412 28.6429 19.1303 28.7074 18.6635 28.9022C18.1968 29.097 17.7917 29.4149 17.4915 29.822C17.1914 30.2291 17.0073 30.71 16.9591 31.2135C16.9109 31.7169 17.0003 32.224 17.2177 32.6807L17.0243 32.8741H11.8044C11.5566 32.8741 11.3189 32.9726 11.1437 33.1478C10.9684 33.323 10.87 33.5607 10.87 33.8086V37.5464C10.8707 37.7366 10.93 37.922 11.0396 38.0775C11.1493 38.2329 11.304 38.3509 11.483 38.4155L10.2093 39.6891C10.0899 39.8085 10.0051 39.958 9.96381 40.1217C9.92257 40.2854 9.92645 40.4572 9.97504 40.6189C10.0236 40.7806 10.1151 40.9261 10.2398 41.04C10.3645 41.1538 10.5176 41.2318 10.6831 41.2656C10.9232 41.3141 11.3073 41.4011 11.8044 41.5179L9.37482 43.3401L10.4962 44.8352L14.1565 42.0898ZM18.6951 33.8459L32.5149 35.1589C32.9619 35.1999 33.392 35.3497 33.7679 35.595C34.1437 35.8404 34.4539 36.174 34.6714 36.5667C34.8888 36.9593 35.0069 37.3992 35.0154 37.848C35.0239 38.2968 34.9226 38.7409 34.7202 39.1415L34.3287 39.9358C34.2703 40.0535 34.2374 40.1821 34.2321 40.3133C34.2267 40.4446 34.2491 40.5754 34.2978 40.6974L35.7743 44.3867L33.2951 45.0408C31.2814 44.5203 17.8504 41.0497 12.7249 39.8199L18.6951 33.8459ZM28.6481 45.7697L32.2093 46.6873C32.1246 46.8824 32.008 47.0621 31.8645 47.219C31.6912 47.4105 31.4797 47.5635 31.2435 47.6679C31.0073 47.7724 30.7519 47.8261 30.4936 47.8255C29.998 47.8255 29.5226 47.6286 29.1721 47.2781C28.8216 46.9276 28.6247 46.4522 28.6247 45.9565C28.6247 45.893 28.6425 45.8323 28.6481 45.7697ZM18.3456 54.3667C17.6093 54.3623 16.8811 54.213 16.2025 53.9272C15.524 53.6414 14.9083 53.2248 14.3908 52.7011C13.3455 51.6434 12.7633 50.2138 12.772 48.7268C12.7808 47.2398 13.38 45.8171 14.4377 44.7719C15.4954 43.7266 16.925 43.1444 18.412 43.1532L20.935 43.7942C21.777 44.23 22.4934 44.8741 23.016 45.6652C23.5386 46.4562 23.85 47.3678 23.9206 48.3133L17.613 46.9116C17.3753 46.8587 17.1264 46.9007 16.9192 47.0287C16.7121 47.1566 16.563 47.3604 16.5038 47.5965L16.2141 48.7599H14.6078V50.6289H15.7469L15.5703 51.3362C15.54 51.4573 15.5342 51.5832 15.5534 51.7065C15.5725 51.8298 15.6162 51.9481 15.6818 52.0543C15.7474 52.1604 15.8335 52.2524 15.9352 52.3247C16.037 52.397 16.1521 52.4483 16.2739 52.4753L21.2191 53.5743C20.351 54.0944 19.3576 54.3683 18.3456 54.3667ZM24.201 52.323L17.6158 50.8597L18.0971 48.9356L24.6822 50.398L24.201 52.323ZM27.6052 51.054L26.5063 50.8064L26.7278 49.9215C26.7581 49.8004 26.7638 49.6745 26.7447 49.5512C26.7255 49.4279 26.6819 49.3096 26.6163 49.2034C26.5507 49.0973 26.4645 49.0053 26.3628 48.933C26.2611 48.8607 26.1459 48.8094 26.0241 48.7824L25.8213 48.7366C25.8194 47.3216 25.4142 45.9365 24.6532 44.7436L26.8221 45.2996C26.6963 45.8812 26.7154 46.4848 26.8777 47.0572C27.04 47.6297 27.3406 48.1534 27.7529 48.5824C28.1653 49.0114 28.6767 49.3324 29.2423 49.5172C29.8079 49.7019 30.4103 49.7448 30.9964 49.6421L27.6052 51.054ZM64.1342 48.7599C64.1342 50.2469 63.5435 51.673 62.492 52.7245C61.4406 53.776 60.0145 54.3667 58.5274 54.3667C57.0404 54.3667 55.6143 53.776 54.5629 52.7245C53.5114 51.673 52.9207 50.2469 52.9207 48.7599C52.92 48.0976 53.0394 47.4407 53.273 46.8209C53.3883 46.7742 53.4931 46.705 53.5813 46.6172L55.4026 44.7959L56.4819 46.8518C55.9747 47.3656 55.6676 48.0436 55.6158 48.7638C55.5641 49.4839 55.771 50.1989 56.1995 50.7801C56.6279 51.3612 57.2497 51.7703 57.953 51.9338C58.6562 52.0973 59.3947 52.0045 60.0356 51.6719C60.6764 51.3394 61.1776 50.789 61.4488 50.1199C61.72 49.4508 61.7435 48.7068 61.515 48.0219C61.2866 47.337 60.8212 46.7562 60.2025 46.3839C59.5839 46.0116 58.8527 45.8723 58.1406 45.9911L56.8024 43.4363C57.3586 43.2501 57.941 43.1545 58.5274 43.1532C60.014 43.1547 61.4392 43.7458 62.4904 44.797C63.5415 45.8481 64.1327 47.2734 64.1342 48.7599ZM58.5274 47.8255C58.7123 47.8255 58.8929 47.8803 59.0466 47.983C59.2003 48.0856 59.32 48.2316 59.3908 48.4023C59.4615 48.5731 59.48 48.761 59.444 48.9422C59.4079 49.1235 59.3189 49.29 59.1882 49.4207C59.0575 49.5514 58.891 49.6404 58.7098 49.6764C58.5285 49.7125 58.3406 49.694 58.1698 49.6233C57.9991 49.5525 57.8531 49.4328 57.7505 49.2791C57.6478 49.1254 57.593 48.9447 57.593 48.7599C57.593 48.5121 57.6914 48.2744 57.8667 48.0992C58.0419 47.9239 58.2796 47.8255 58.5274 47.8255ZM62.2999 41.2842H56.6585C56.4107 41.2843 56.1731 41.3828 55.9979 41.558L52.5338 45.0221H52.0871L57.093 38.5145C59.1087 38.7707 60.9609 39.7559 62.2999 41.2842ZM52.9207 23.5295C52.9207 23.8991 52.8111 24.2605 52.6057 24.5678C52.4004 24.8752 52.1085 25.1147 51.767 25.2562C51.4255 25.3976 51.0497 25.4346 50.6871 25.3625C50.3246 25.2904 49.9916 25.1124 49.7302 24.851C49.4689 24.5897 49.2909 24.2566 49.2187 23.8941C49.1466 23.5316 49.1836 23.1558 49.3251 22.8143C49.4666 22.4728 49.7061 22.1809 50.0134 21.9755C50.3208 21.7702 50.6821 21.6606 51.0518 21.6606C51.5474 21.6606 52.0228 21.8575 52.3733 22.208C52.7238 22.5585 52.9207 23.0338 52.9207 23.5295ZM42.6416 24.464H45.445C45.609 24.464 45.7702 24.4208 45.9122 24.3387L47.3139 23.5295C47.3178 24.1876 47.4971 24.8327 47.8335 25.3984H42.6416V24.464ZM50.0762 38.2061L46.7103 27.2673H48.6829L55.5101 37.5072L47.8269 47.4947L47.3522 45.123L50.0416 38.849C50.1289 38.6456 50.1412 38.4178 50.0762 38.2061ZM45.6132 45.9565L46.1739 48.7599H34.2315V46.7237L37.1554 45.9565H45.6132ZM18.9876 30.9416C19.0853 30.8018 19.2207 30.6925 19.3779 30.6263C19.5352 30.5602 19.708 30.5399 19.8763 30.5679L29.4265 31.9322C29.4705 31.9379 29.5148 31.9404 29.5592 31.9396H36.2219C36.5745 31.9382 36.9239 32.0065 37.2499 32.1408C37.576 32.275 37.8722 32.4725 38.1216 32.7218C38.3709 32.9712 38.5684 33.2674 38.7026 33.5935C38.8369 33.9195 38.9053 34.2689 38.9038 34.6215C38.9025 34.7777 38.8622 34.9311 38.7864 35.0676C38.7106 35.2042 38.6017 35.3196 38.4698 35.4032C38.338 35.4869 38.1872 35.5361 38.0314 35.5465C37.8755 35.5569 37.7196 35.528 37.5778 35.4626L35.2416 34.3823C34.524 33.7647 33.6322 33.3852 32.6896 33.2965L18.953 31.9882L18.9091 31.9004C18.8325 31.7489 18.7993 31.5792 18.8132 31.4099C18.827 31.2407 18.8874 31.0787 18.9876 30.9416ZM12.7389 36.6119V34.743H15.1554L13.2865 36.6119H12.7389Z" fill="currentColor"/>
</svg>
