<svg viewBox="0 0 24 24" fill="none" xmlns="http://www.w3.org/2000/svg">
<path d="M4.86349 16.0141C7.23964 18.8545 10.1 21.0908 13.3647 22.6733C14.6077 23.2623 16.27 23.9612 18.122 24.081C18.2368 24.086 18.3467 24.091 18.4615 24.091C19.7045 24.091 20.7028 23.6617 21.5165 22.7781C21.5215 22.7731 21.5315 22.7631 21.5365 22.7531C21.826 22.4037 22.1555 22.0892 22.4999 21.7548C22.7345 21.5301 22.9742 21.2955 23.2038 21.0559C24.2671 19.9477 24.2671 18.54 23.1938 17.4667L20.1937 14.4666C19.6845 13.9374 19.0755 13.6579 18.4365 13.6579C17.7975 13.6579 17.1835 13.9374 16.6594 14.4616L14.8723 16.2487C14.7075 16.1538 14.5378 16.069 14.3781 15.9891C14.1784 15.8893 13.9937 15.7944 13.829 15.6896C12.2016 14.6563 10.724 13.3084 9.31129 11.5762C8.59744 10.6727 8.11822 9.91394 7.78376 9.1402C8.253 8.71588 8.69229 8.2716 9.1166 7.83731C9.26636 7.68256 9.42111 7.52781 9.57586 7.37306C10.115 6.83393 10.4045 6.20994 10.4045 5.57597C10.4045 4.942 10.12 4.31801 9.57586 3.77888L8.08827 2.29129C7.91355 2.11657 7.74882 1.94685 7.57909 1.77213C7.24963 1.43268 6.90518 1.08325 6.56573 0.768755C6.05157 0.264571 5.44755 0 4.80858 0C4.17461 0 3.56559 0.264571 3.03146 0.773747L1.16448 2.64072C0.485583 3.31962 0.101206 4.14329 0.021335 5.09674C-0.0735114 6.28981 0.146133 7.55776 0.715211 9.09028C1.5888 11.4614 2.90666 13.6629 4.86349 16.0141ZM1.23936 5.20157C1.29927 4.53765 1.55385 3.98355 2.03308 3.50432L3.89007 1.64733C4.1796 1.36778 4.49908 1.22302 4.80858 1.22302C5.11309 1.22302 5.42259 1.36778 5.70713 1.65732C6.04158 1.96681 6.35607 2.29129 6.69552 2.63573C6.86525 2.81045 7.03997 2.98516 7.21468 3.16487L8.70227 4.65246C9.01177 4.96196 9.17151 5.27645 9.17151 5.58595C9.17151 5.89545 9.01177 6.20994 8.70227 6.51944C8.54752 6.67419 8.39278 6.83393 8.23803 6.98868C7.77378 7.45792 7.33948 7.9022 6.86026 8.32651C6.85027 8.3365 6.84528 8.34149 6.8353 8.35147C6.42097 8.7658 6.48586 9.16016 6.5857 9.45968C6.59069 9.47465 6.59569 9.48464 6.60068 9.49961C6.98506 10.4231 7.51919 11.3017 8.35284 12.35C9.85041 14.197 11.4279 15.6297 13.165 16.7329C13.3797 16.8727 13.6093 16.9825 13.824 17.0923C14.0237 17.1922 14.2084 17.287 14.3731 17.3918C14.3931 17.4018 14.408 17.4118 14.428 17.4218C14.5927 17.5066 14.7525 17.5466 14.9122 17.5466C15.3116 17.5466 15.5711 17.292 15.656 17.2071L17.523 15.3402C17.8125 15.0506 18.127 14.8959 18.4365 14.8959C18.8159 14.8959 19.1254 15.1305 19.3201 15.3402L22.3302 18.3453C22.9292 18.9443 22.9242 19.5933 22.3152 20.2272C22.1056 20.4519 21.8859 20.6665 21.6513 20.8912C21.3019 21.2306 20.9375 21.58 20.608 21.9744C20.0339 22.5934 19.35 22.8829 18.4665 22.8829C18.3816 22.8829 18.2917 22.8779 18.2069 22.873C16.5695 22.7681 15.047 22.1292 13.9038 21.585C10.7989 20.0825 8.07329 17.9509 5.81196 15.2453C3.94997 13.0039 2.697 10.9173 1.86834 8.68094C1.35418 7.30816 1.15949 6.20495 1.23936 5.20157Z" fill="currentColor"/>
</svg>
