<svg viewBox="0 0 24 24" fill="none" xmlns="http://www.w3.org/2000/svg">
<g clip-path="url(#clip0_24_1511)">
<path d="M22.9092 12.1007V8.7275C22.9092 7.5837 22.022 6.6535 20.9011 6.56329L17.7685 1.09179C17.4782 0.585754 17.0094 0.224073 16.4485 0.0738875C15.8903 -0.0752748 15.3065 0.00306481 14.8069 0.293873L4.06827 6.5457H2.18224C0.978972 6.5457 0.000442505 7.52418 0.000442505 8.7275V21.8182C0.000442505 23.0215 0.978921 24 2.18224 24H20.7274C21.9307 24 22.9092 23.0215 22.9092 21.8182V18.445C23.5427 18.2191 24.0001 17.6194 24.0001 16.9092V13.6365C24.0001 12.9263 23.5427 12.3266 22.9092 12.1007ZM19.6335 6.5457H14.8793L18.445 4.4698L19.6335 6.5457ZM17.903 3.52313L12.7113 6.5457H10.5578L17.3645 2.5827L17.903 3.52313ZM15.356 1.23666C15.6027 1.0923 15.8908 1.05395 16.1662 1.12748C16.4448 1.20204 16.6771 1.38209 16.8214 1.63403L16.8225 1.63603L8.38979 6.5457H6.23642L15.356 1.23666ZM21.8183 21.8182C21.8183 22.4196 21.3288 22.9091 20.7274 22.9091H2.18224C1.58089 22.9091 1.09137 22.4196 1.09137 21.8182V8.7275C1.09137 8.12615 1.58089 7.63663 2.18224 7.63663H20.7274C21.3288 7.63663 21.8183 8.12615 21.8183 8.7275V12.0002H18.5456C16.7409 12.0002 15.2729 13.4682 15.2729 15.2728C15.2729 17.0775 16.7409 18.5455 18.5456 18.5455H21.8183V21.8182ZM22.9092 16.9092C22.9092 17.2101 22.6647 17.4546 22.3637 17.4546H18.5456C17.3423 17.4546 16.3638 16.4762 16.3638 15.2728C16.3638 14.0696 17.3423 13.091 18.5456 13.091H22.3637C22.6647 13.091 22.9092 13.3355 22.9092 13.6365V16.9092Z" fill="currentColor"/>
<path d="M18.5453 14.182C17.944 14.182 17.4545 14.6715 17.4545 15.2729C17.4545 15.8742 17.944 16.3637 18.5453 16.3637C19.1467 16.3637 19.6362 15.8742 19.6362 15.2729C19.6363 14.6715 19.1467 14.182 18.5453 14.182Z" fill="currentColor"/>
</g>
</svg>
