<svg viewBox="0 0 24 24" fill="none" xmlns="http://www.w3.org/2000/svg">
<g clip-path="url(#clip0_24_2004)">
<path d="M12.0002 9.71484C9.15414 9.71484 6.55078 11.1622 5.0367 13.586C4.67009 14.1733 4.84863 14.9466 5.43591 15.3138C6.02268 15.6799 6.79652 15.5018 7.16363 14.914C8.21631 13.2285 10.0248 12.2224 12.0002 12.2224C13.9757 12.2224 15.7837 13.2285 16.8368 14.914C17.0746 15.2952 17.4833 15.5043 17.9011 15.5043C18.1282 15.5043 18.3574 15.4426 18.5641 15.3138C19.1513 14.9471 19.3299 14.1738 18.9633 13.586C17.4497 11.1622 14.8468 9.71484 12.0002 9.71484Z" fill="currentColor"/>
<path d="M23.8099 10.5669C21.2467 6.46102 16.8318 4.01012 12.0002 4.01012C7.16865 4.01012 2.75432 6.46102 0.190572 10.5669C-0.176036 11.1542 0.00250344 11.9275 0.589777 12.2941C1.17755 12.6602 1.95089 12.4822 2.3175 11.8949C4.41985 8.52776 8.03978 6.51769 12.0002 6.51769C15.9607 6.51769 19.5806 8.52776 21.683 11.8949C21.9207 12.2756 22.3294 12.4847 22.7472 12.4847C22.9739 12.4847 23.2036 12.4235 23.4102 12.2941C23.998 11.927 24.1765 11.1542 23.8099 10.5669Z" fill="currentColor"/>
<path d="M12.0002 19.9899C13.1397 19.9899 14.0635 19.0661 14.0635 17.9267C14.0635 16.7872 13.1397 15.8634 12.0002 15.8634C10.8608 15.8634 9.93701 16.7872 9.93701 17.9267C9.93701 19.0661 10.8608 19.9899 12.0002 19.9899Z" fill="currentColor"/>
</g>
</svg>
